# xmcd CD database file
#
# Track frame offsets:
#	150
#	24302
#	45092
#	67242
#	88155
#	105767
#	123420
#	141192
#	158795
#	181107
#	199767
#	220692
#
# Disc length: 3180 seconds
#
# Revision: 0
# Processed by: cddbd v1.5.1PL2 Copyright (c) Steve Scherf et al.
# Submitted via: CDex 1.51
#
DISCID=980c6a0c
DTITLE=Golden City Factory - 東方ミッドナイト MAXIMUM TUNE ?
DYEAR=2005
DGENRE=Game
TTITLE0=風神少女
TTITLE1=ポイズンボディ　〜 Forsaken Doll
TTITLE2=フラワリングナイト
TTITLE3=お宇佐さまの素い幡
TTITLE4=狂気の瞳　〜 Invisible Full Moon
TTITLE5=今昔幻想郷　〜 Flower Land
TTITLE6=彼岸帰航　〜 Riverside View
TTITLE7=六十年目の東方裁判　〜 Fate of Sixty Years
TTITLE8=魂の花　〜 Another Dream...
TTITLE9=御伽の国の鬼が島　〜 Missing Power
TTITLE10=夜が降りてくる　〜 Evening Star
TTITLE11=東方萃夢想
EXTD=YEAR: 2005
EXTT0=
EXTT1=
EXTT2=
EXTT3=
EXTT4=
EXTT5=
EXTT6=
EXTT7=
EXTT8=
EXTT9=
EXTT10=
EXTT11=
PLAYORDER=
